# xmcd CD database file
#
# Track frame offsets:
#	150
#	49832
#	93125
#	117842
#	147557
#	191677
#	240145
#	270460
#	302407
#
# Disc length: 4644 seconds
#
# Revision: 0
# Processed by: cddbd v1.5.2PL0 Copyright (c) Steve Scherf et al.
# Submitted via: CDex 1.51
#
DISCID=6e122209
DTITLE=Autour de Minuit - Jazz
DYEAR=2000
DGENRE=Jazz
TTITLE0=Cannonball Adderley (with M. Davis) - Somethin' else
TTITLE1=Art Blakey and the Jazz Messengers - Moanin'
TTITLE2=Herbie Hancock - Empyrean isles
TTITLE3=Dexter Gordon - Go
TTITLE4=Donald Byrn - Slow drag
TTITLE5=John Coltrane - Blue train
TTITLE6=Lou Donaldson - Blues walk
TTITLE7=Horace Silver - Six pieces of silver
TTITLE8=Lee Morgan - The sidewinder
EXTD=YEAR: 2000
EXTT0=
EXTT1=
EXTT2=
EXTT3=
EXTT4=
EXTT5=
EXTT6=
EXTT7=
EXTT8=
PLAYORDER=
